<?xml version="1.0" encoding="iso-8859-1"?>
<!-- Generator: Adobe Illustrator 16.0.0, SVG Export Plug-In . SVG Version: 6.00 Build 0)  -->
<!DOCTYPE svg PUBLIC "-//W3C//DTD SVG 1.1//EN" "http://www.w3.org/Graphics/SVG/1.1/DTD/svg11.dtd">
<svg version="1.1" id="Capa_1" xmlns="http://www.w3.org/2000/svg" xmlns:xlink="http://www.w3.org/1999/xlink" x="0px" y="0px"
	 width="800px" height="800px" viewBox="0 0 800 800" style="enable-background:new 0 0 800 800;" xml:space="preserve">
<g>
	<rect x="127.321" y="252.328" width="230.954" height="28.69"/>
	<rect x="127.321" y="328.515" width="230.954" height="28.689"/>
	<rect x="127.321" y="404.705" width="230.954" height="28.688"/>
	<rect x="127.321" y="480.896" width="230.954" height="28.688"/>
	<path d="M800,95.238H0v609.523h800V95.238z M723.81,628.57h-87.138l0.266,65.066l-101.511-28.592l-103.408,29.646V628.57H76.192
		V171.43H723.81V628.57z"/>
	<path d="M427.615,496.754l18.748,5.1V675.66l89.027-25.523l87.123,24.543l-0.706-172.125l21.308-5.799l15.41-56.711l29.196-51.01
		l-29.196-51.027l-15.41-56.73l-56.748-15.425l-51.009-29.187l-51.015,29.187l-56.729,15.425l-15.423,56.73l-29.201,51.027
		l29.201,51.01L427.615,496.754z M438,350.664l12.992-46.009l42.646-11.6l41.721-23.33l38.354,21.946l46.022,12.983l11.586,42.649
		l23.345,41.73l-21.952,38.354l-12.979,46.018l-42.661,11.586l-41.716,23.35l-38.348-21.959l-45.954-12.963l-0.062-0.014
		l-11.601-42.656l-23.343-41.713L438,350.664z"/>
</g>
<g>
</g>
<g>
</g>
<g>
</g>
<g>
</g>
<g>
</g>
<g>
</g>
<g>
</g>
<g>
</g>
<g>
</g>
<g>
</g>
<g>
</g>
<g>
</g>
<g>
</g>
<g>
</g>
<g>
</g>
</svg>
